<svg xmlns="http://www.w3.org/2000/svg" xmlns:xlink="http://www.w3.org/1999/xlink" width="188" zoomAndPan="magnify" viewBox="0 0 141.75 141.749996" height="188" preserveAspectRatio="xMidYMid meet" version="1.0"><defs><clipPath id="eba4e22e65"><path d="M 0 0 L 141.5 0 L 141.5 141.5 L 0 141.5 Z M 0 0 " clip-rule="nonzero"/></clipPath><clipPath id="b7628c367f"><path d="M 42 16 L 141.5 16 L 141.5 141.5 L 42 141.5 Z M 42 16 " clip-rule="nonzero"/></clipPath><clipPath id="b257ee2432"><path d="M 17 91 L 125 91 L 125 141.5 L 17 141.5 Z M 17 91 " clip-rule="nonzero"/></clipPath></defs><g clip-path="url(#eba4e22e65)"><path fill="#ffdd3c" d="M 141.535156 70.777344 C 141.535156 88.363281 135.109375 104.457031 124.492188 116.832031 C 121.070312 120.820312 117.207031 124.425781 112.988281 127.5625 C 101.207031 136.34375 86.601562 141.535156 70.785156 141.535156 C 60.671875 141.535156 51.0625 139.414062 42.367188 135.59375 C 37.441406 133.433594 32.816406 130.734375 28.554688 127.5625 C 24.34375 124.417969 20.488281 120.820312 17.066406 116.839844 C 6.449219 104.464844 0.0234375 88.367188 0.0234375 70.777344 C 0.0234375 31.699219 31.707031 0.0234375 70.785156 0.0234375 C 97.597656 0.0234375 120.925781 14.941406 132.929688 36.9375 C 138.417969 46.988281 141.535156 58.519531 141.535156 70.777344 Z M 141.535156 70.777344 " fill-opacity="1" fill-rule="nonzero"/></g><g clip-path="url(#b7628c367f)"><path fill="#fcc33d" d="M 141.535156 70.777344 C 141.535156 88.363281 135.109375 104.457031 124.492188 116.832031 C 121.070312 120.820312 117.207031 124.425781 112.988281 127.5625 C 101.207031 136.34375 86.601562 141.535156 70.785156 141.535156 C 60.671875 141.535156 51.0625 139.414062 42.367188 135.59375 L 74.101562 28.007812 L 80.472656 19.441406 L 92.183594 16.773438 L 132.925781 36.9375 C 138.417969 46.988281 141.535156 58.519531 141.535156 70.777344 Z M 141.535156 70.777344 " fill-opacity="1" fill-rule="nonzero"/></g><path fill="#fbcb98" d="M 46.980469 47.914062 C 46.277344 47.144531 45.195312 46.777344 44.585938 47.835938 C 43.710938 49.355469 43.796875 51.398438 43.925781 53.078125 C 44.03125 54.4375 44.199219 55.800781 44.550781 57.128906 C 44.859375 58.269531 45.277344 59.84375 46.300781 60.554688 C 46.53125 60.714844 46.847656 60.875 47.144531 60.9375 C 47.304688 60.972656 48.28125 60.988281 47.945312 60.566406 " fill-opacity="1" fill-rule="nonzero"/><path fill="#fbcb98" d="M 94.496094 47.914062 C 95.199219 47.144531 96.28125 46.777344 96.890625 47.835938 C 97.769531 49.355469 97.679688 51.398438 97.550781 53.078125 C 97.445312 54.4375 97.28125 55.800781 96.925781 57.128906 C 96.621094 58.269531 96.199219 59.84375 95.179688 60.554688 C 94.945312 60.714844 94.628906 60.875 94.335938 60.9375 C 94.175781 60.972656 93.199219 60.988281 93.53125 60.566406 " fill-opacity="1" fill-rule="nonzero"/><path fill="#eabf8f" d="M 124.492188 116.832031 C 121.070312 120.820312 117.210938 124.425781 112.988281 127.5625 L 28.554688 127.5625 C 24.339844 124.417969 20.484375 120.820312 17.066406 116.839844 C 20.273438 108.667969 27.070312 102.152344 35.832031 99.476562 L 50.421875 93.875 C 56.054688 92.023438 55.800781 88.90625 55.800781 82.96875 L 55.800781 70.34375 L 85.75 70.34375 L 85.75 82.957031 C 85.75 88.898438 86.046875 92.425781 91.695312 94.273438 L 105.746094 99.460938 C 114.507812 102.144531 121.296875 108.664062 124.492188 116.832031 Z M 124.492188 116.832031 " fill-opacity="1" fill-rule="nonzero"/><g clip-path="url(#b257ee2432)"><path fill="#ffffff" d="M 124.492188 116.832031 C 111.519531 131.953125 92.273438 141.535156 70.785156 141.535156 C 49.296875 141.535156 30.046875 131.953125 17.074219 116.839844 C 20.28125 108.667969 27.074219 102.152344 35.839844 99.476562 L 50.425781 93.875 C 52.070312 93.332031 53.210938 92.683594 54.003906 91.890625 C 59.738281 97.164062 68.453125 98.164062 76.035156 97.097656 C 80.328125 96.492188 84.878906 95.125 88.726562 92.808594 C 89.5 93.382812 90.46875 93.871094 91.699219 94.273438 L 105.75 99.460938 C 114.507812 102.144531 121.296875 108.664062 124.492188 116.832031 Z M 124.492188 116.832031 " fill-opacity="1" fill-rule="nonzero"/></g><path fill="#092838" d="M 53.699219 92.171875 C 52.929688 92.835938 51.867188 93.398438 50.425781 93.875 L 35.839844 99.476562 C 27.074219 102.152344 20.28125 108.667969 17.074219 116.839844 C 26.492188 127.8125 39.214844 135.859375 53.699219 139.453125 Z M 53.699219 92.171875 " fill-opacity="1" fill-rule="nonzero"/><path fill="#092838" d="M 105.75 99.460938 L 91.699219 94.273438 C 90.917969 94.019531 90.257812 93.726562 89.671875 93.402344 L 89.671875 138.980469 C 103.410156 135.1875 115.46875 127.355469 124.492188 116.832031 C 121.296875 108.664062 114.507812 102.144531 105.75 99.460938 Z M 105.75 99.460938 " fill-opacity="1" fill-rule="nonzero"/><path fill="#fbcb98" d="M 94.617188 45.339844 C 94.558594 28.433594 84.207031 16.285156 70.828125 16.285156 C 70.824219 16.285156 70.8125 16.285156 70.804688 16.285156 C 70.800781 16.285156 70.789062 16.285156 70.785156 16.285156 C 57.40625 16.285156 47.054688 28.433594 46.992188 45.339844 C 46.964844 53.050781 47.230469 58.125 48.011719 63.722656 C 50.449219 81.117188 66.460938 85.992188 70.785156 85.992188 C 76.082031 85.992188 91.167969 81.117188 93.601562 63.722656 C 94.378906 58.125 94.644531 53.050781 94.617188 45.339844 Z M 94.617188 45.339844 " fill-opacity="1" fill-rule="nonzero"/><path fill="#441d00" d="M 89.597656 64.648438 C 86.925781 67.503906 83.035156 68.449219 79.46875 66.617188 C 78.078125 65.902344 76.894531 64.828125 75.507812 64.105469 C 72.984375 62.796875 69.878906 62.796875 67.238281 63.859375 C 65.640625 64.503906 64.222656 65.507812 62.667969 66.25 C 60.726562 67.179688 57.621094 67.761719 55.535156 66.949219 C 53.511719 66.167969 52.203125 64.042969 51.269531 62.195312 C 49.046875 57.757812 47.652344 53.160156 46.992188 48.429688 C 47.042969 54.476562 47.332031 58.914062 48.007812 63.722656 C 50.441406 81.117188 66.457031 85.992188 70.777344 85.992188 C 76.074219 85.992188 91.164062 81.117188 93.597656 63.722656 C 93.957031 61.136719 94.457031 55.769531 94.617188 53.089844 C 93.714844 55.929688 91.851562 62.246094 89.597656 64.648438 Z M 77.433594 76.417969 C 77.167969 76.503906 76.894531 76.550781 76.617188 76.558594 C 74.246094 76.613281 73.113281 72.703125 70.648438 73.722656 C 68.132812 74.765625 66.710938 78.753906 63.394531 75.109375 C 60.34375 71.753906 64.925781 69.113281 66.984375 68.015625 C 71.210938 65.757812 76.730469 67.011719 79.898438 70.777344 C 81.460938 72.648438 79.601562 75.71875 77.433594 76.417969 Z M 77.433594 76.417969 " fill-opacity="1" fill-rule="nonzero"/><path fill="#441d00" d="M 94.617188 45.339844 C 94.589844 37.773438 92.5 31.167969 89.003906 26.171875 C 88.179688 28.066406 87.335938 29.953125 86.441406 31.824219 C 85.941406 32.871094 86.507812 35.566406 86.585938 36.730469 C 86.707031 38.546875 86.941406 40.363281 87.441406 42.117188 C 88.191406 44.734375 88.582031 47.839844 90.535156 49.917969 C 90.957031 50.367188 91.480469 50.703125 91.917969 51.136719 C 92.515625 51.734375 92.933594 52.519531 93.09375 53.351562 C 93.308594 54.46875 93.160156 55.816406 94.042969 56.539062 C 95.332031 53.140625 94.628906 48.957031 94.617188 45.339844 Z M 94.617188 45.339844 " fill-opacity="1" fill-rule="nonzero"/><path fill="#441d00" d="M 50.410156 51.113281 C 50.964844 50.464844 51.5625 49.859375 52.164062 49.304688 C 53.511719 48.074219 54.621094 46.804688 55.097656 45.011719 C 55.625 43.042969 55.457031 40.957031 56.035156 38.996094 C 56.234375 38.3125 56.535156 37.636719 57.023438 37.121094 C 58.007812 36.082031 59.625 35.871094 61.027344 36.175781 C 62.429688 36.476562 63.695312 37.207031 64.980469 37.828125 C 71.347656 40.902344 79.191406 41.328125 85.410156 37.960938 C 89.300781 35.855469 92.660156 32.308594 97.066406 31.933594 C 97.839844 31.867188 98.730469 31.949219 99.214844 32.554688 C 97.601562 29.148438 93.976562 26.792969 90.207031 26.703125 C 90.371094 25.625 91.5 25.011719 92.515625 24.617188 C 95.179688 23.578125 97.972656 22.890625 100.808594 22.570312 C 97.136719 19.851562 92.195312 18.925781 87.785156 20.136719 C 88.433594 18.34375 90.398438 17.460938 92.171875 16.761719 C 89.40625 14.09375 85.316406 13.316406 81.472656 13.195312 C 73.730469 12.945312 65.929688 14.886719 59.207031 18.730469 C 58.515625 19.125 57.816406 19.550781 57.027344 19.6875 C 56.238281 19.820312 55.335938 19.589844 54.902344 18.925781 C 54.316406 18.023438 54.820312 16.828125 55.324219 15.875 C 49.289062 18.054688 47.714844 25.425781 47.019531 31.035156 C 45.882812 40.171875 46.695312 49.429688 47.503906 58.601562 C 47.265625 55.785156 48.625 53.210938 50.410156 51.113281 Z M 50.410156 51.113281 " fill-opacity="1" fill-rule="nonzero"/></svg>