<svg width="1174" height="107" viewBox="0 0 1174 107" fill="none" xmlns="http://www.w3.org/2000/svg">
<g clip-path="url(#clip0_1_353)">
<rect width="1174" height="107" fill="#1F1F1F"/>
<rect x="1110" width="74" height="65" fill="#DB3C3B"/>
<path d="M737.381 -35.8781C730.765 -35.8621 724.217 -34.5431 718.11 -31.9964C712.004 -29.4497 706.459 -25.7252 701.792 -21.0355C697.125 -16.3459 693.427 -10.7829 690.91 -4.66422C688.393 1.45446 687.106 8.00901 687.122 14.6252C687.138 21.2414 688.457 27.7896 691.003 33.896C693.55 40.0025 697.275 45.5475 701.964 50.2145C706.654 54.8816 712.217 58.5792 718.336 61.0963C724.454 63.6134 731.009 64.9007 737.625 64.8847L737.503 14.5033L737.381 -35.8781Z" fill="#87B464"/>
<path d="M830.117 54.1382C822.616 54.1563 815.193 55.6517 808.27 58.5388C801.347 61.426 795.061 65.6484 789.77 70.965C784.479 76.2817 780.287 82.5884 777.433 89.5251C774.579 96.4617 773.12 103.893 773.138 111.393C773.156 118.894 774.652 126.318 777.539 133.24C780.426 140.163 784.648 146.45 789.965 151.741C795.282 157.031 801.588 161.223 808.525 164.077C815.462 166.931 822.893 168.39 830.393 168.372L830.255 111.255L830.117 54.1382Z" fill="#F4D5B5"/>
<path d="M983.551 -32.9139C977.175 -28.963 971.64 -23.7949 967.261 -17.7048C962.883 -11.6146 959.747 -4.72175 958.032 2.58037C956.318 9.88248 956.058 17.4508 957.268 24.8532C958.479 32.2557 961.135 39.3472 965.086 45.723C969.037 52.0988 974.205 57.634 980.295 62.0125C986.385 66.3909 993.278 69.527 1000.58 71.2416C1007.88 72.9563 1015.45 73.2158 1022.85 72.0055C1030.26 70.7952 1037.35 68.1388 1043.72 64.1878L1013.64 15.6369L983.551 -32.9139Z" fill="#F4D5B5"/>
<rect x="830" y="-21" width="75" height="75" fill="#DB3C3B"/>
<circle cx="867.5" cy="16.5" r="28.2895" fill="#1F1F1F"/>
<rect x="1043" y="65" width="67" height="67" fill="#87B464"/>
<circle cx="1076.5" cy="98.5" r="25.2719" fill="#1F1F1F"/>
<circle cx="1152.5" cy="22.5" r="42.5" fill="#DB3C3B"/>
<path d="M969.188 53.5304L964.621 119.931L902.645 54.9264L969.188 53.5304Z" fill="#7ED0FE"/>
</g>
<defs>
<clipPath id="clip0_1_353">
<rect width="1174" height="107" fill="white"/>
</clipPath>
</defs>
</svg>
